<svg xmlns="http://www.w3.org/2000/svg" viewBox="0 0 32 32" fill="none">
  <defs>
    <!-- Gradient definition matching your bg-gradient-primary -->
    <linearGradient id="bgGradient" x1="0%" y1="0%" x2="100%" y2="100%">
      <stop offset="0%" style="stop-color:#fd7c15;stop-opacity:1" />
      <stop offset="100%" style="stop-color:#f97316;stop-opacity:1" />
    </linearGradient>

    <!-- Shadow filter -->
    <filter id="shadow" x="-20%" y="-20%" width="140%" height="140%">
      <feDropShadow dx="0" dy="2" stdDeviation="2" flood-color="rgba(0,0,0,0.25)"/>
    </filter>
  </defs>

  <!-- Rounded rectangle background with gradient -->
  <rect x="2" y="2" width="28" height="28" rx="6" ry="6"
        fill="url(#bgGradient)"
        filter="url(#shadow)"/>

  <!-- PenTool icon perfectly centered -->
  <g transform="translate(16,16) scale(0.7) translate(-12,-12)" stroke="white" stroke-width="2" stroke-linecap="round" stroke-linejoin="round" fill="none">
    <path d="M15.707 21.293a1 1 0 0 1-1.414 0l-1.586-1.586a1 1 0 0 1 0-1.414l5.586-5.586a1 1 0 0 1 1.414 0l1.586 1.586a1 1 0 0 1 0 1.414z"/>
    <path d="m18 13-1.375-6.874a1 1 0 0 0-.746-.776L3.235 2.028a1 1 0 0 0-1.207 1.207L5.35 15.879a1 1 0 0 0 .776.746L13 18"/>
    <path d="m2.3 2.3 7.286 7.286"/>
    <circle cx="11" cy="11" r="2"/>
  </g>
</svg>